<svg width="45" height="45" viewBox="0 0 45 45" fill="none" xmlns="http://www.w3.org/2000/svg">
<path fill-rule="evenodd" clip-rule="evenodd" d="M10 3H35C38.866 3 42 6.13401 42 10V35C42 38.866 38.866 42 35 42H10C6.13401 42 3 38.866 3 35V10C3 6.13401 6.13401 3 10 3ZM0 10C0 4.47715 4.47715 0 10 0H35C40.5228 0 45 4.47715 45 10V35C45 40.5228 40.5228 45 35 45H10C4.47715 45 0 40.5228 0 35V10ZM22.5277 15.7574C20.1846 13.4142 16.3856 13.4142 14.0424 15.7574C11.6993 18.1005 11.6993 21.8995 14.0424 24.2426L22.5277 32.7279L31.013 24.2426C33.3562 21.8995 33.3562 18.1005 31.013 15.7574C28.6699 13.4142 24.8709 13.4142 22.5277 15.7574Z" fill="#A66CFF"/>
</svg>
